<?xml version="1.0" standalone="no"?>
<!DOCTYPE svg PUBLIC "-//W3C//DTD SVG 20010904//EN"
 "http://www.w3.org/TR/2001/REC-SVG-20010904/DTD/svg10.dtd">
<svg version="1.0" xmlns="http://www.w3.org/2000/svg"
 width="500.000000pt" height="500.000000pt" viewBox="0 0 500.000000 500.000000"
 preserveAspectRatio="xMidYMid meet">

<g transform="translate(0.000000,500.000000) scale(0.100000,-0.100000)"
fill="#000000" stroke="none">
<path d="M2596 3959 c-8 -57 -26 -203 -26 -216 0 -8 14 -13 35 -13 32 0 35 2
35 29 0 57 6 62 71 55 55 -6 59 -5 59 14 0 21 -24 32 -77 32 -38 0 -47 11 -38
49 l6 28 61 -9 c64 -9 85 -1 75 25 -3 9 -28 16 -71 21 -37 4 -80 9 -96 12 -26
6 -29 4 -34 -27z"/>
<path d="M2190 3898 c-14 -6 -38 -12 -53 -13 -15 -2 -31 -5 -34 -9 -3 -3 5
-45 18 -93 20 -70 28 -89 44 -91 39 -5 45 9 30 67 -15 58 -12 77 16 92 19 10
26 44 12 52 -5 3 -19 0 -33 -5z"/>
<path d="M2813 3823 c-36 -116 -36 -120 -7 -127 34 -9 41 -3 49 41 10 56 31
83 64 83 20 0 30 6 34 20 5 20 -23 37 -43 25 -6 -3 -17 1 -26 9 -32 32 -49 20
-71 -51z"/>
<path d="M1943 3820 c-43 -26 -56 -54 -50 -104 9 -67 66 -98 137 -77 42 12 70
35 70 56 0 23 -32 27 -55 5 -22 -21 -69 -27 -80 -10 -3 5 7 15 22 21 107 44
114 49 103 68 -16 31 -60 61 -89 61 -14 0 -40 -9 -58 -20z m84 -45 c1 -5 -15
-18 -37 -27 -38 -16 -40 -16 -40 1 0 9 6 23 12 29 15 15 60 12 65 -3z"/>
<path d="M2968 3791 c-61 -55 -36 -144 49 -172 61 -20 126 15 137 75 9 46 -6
80 -47 105 -49 30 -99 28 -139 -8z m110 -33 c26 -26 4 -98 -29 -98 -42 0 -62
47 -39 91 12 21 50 25 68 7z"/>
<path d="M2386 3787 c-28 -21 -17 -51 21 -55 25 -3 33 1 38 19 5 16 2 26 -11
36 -22 16 -26 16 -48 0z"/>
<path d="M1738 3714 c-16 -8 -28 -18 -28 -22 0 -4 -14 -13 -31 -19 -24 -9 -30
-17 -27 -31 8 -30 131 -212 143 -212 6 0 20 6 30 14 18 13 18 14 -3 44 -28 38
-28 39 8 47 37 8 70 49 70 86 0 86 -85 135 -162 93z m82 -54 c26 -26 25 -52
-1 -76 -19 -17 -23 -17 -47 -3 -34 18 -42 64 -15 85 25 19 40 17 63 -6z"/>
<path d="M3171 3654 c-28 -41 -49 -80 -46 -85 4 -5 15 -14 25 -19 17 -9 24 -4
52 40 39 59 62 70 90 42 20 -19 20 -20 0 -59 -11 -22 -28 -45 -36 -52 -23 -19
-20 -36 9 -49 26 -12 32 -6 88 78 37 54 10 119 -55 135 -16 4 -26 11 -23 16 6
8 -25 29 -43 29 -5 0 -32 -34 -61 -76z"/>
<path d="M3465 3590 c-3 -6 -17 -7 -29 -4 -24 6 -43 -17 -30 -37 3 -5 -11 -29
-30 -53 -45 -54 -46 -86 -5 -120 43 -37 67 -15 37 34 -11 17 -9 24 18 51 28
27 34 29 52 18 17 -10 23 -10 36 1 15 12 15 14 0 31 -16 18 -16 20 0 37 15 18
15 20 -2 35 -21 19 -38 22 -47 7z"/>
<path d="M1554 3570 c-35 -14 -74 -69 -74 -104 0 -98 127 -134 194 -55 38 45
35 92 -8 135 -35 35 -68 42 -112 24z m64 -60 c37 -35 24 -90 -22 -90 -47 0
-72 56 -39 92 21 23 34 23 61 -2z"/>
<path d="M1332 3458 c-21 -21 -13 -31 65 -93 41 -33 88 -70 103 -82 l27 -22
21 22 21 22 -101 83 c-56 45 -106 82 -112 82 -7 0 -17 -5 -24 -12z"/>
<path d="M3491 3416 c-29 -16 -50 -52 -51 -87 0 -55 89 -142 111 -108 14 23
10 35 -16 49 -14 8 -28 24 -31 36 -12 47 3 44 46 -10 25 -31 52 -55 59 -54 8
2 24 18 34 36 51 88 -60 189 -152 138z m97 -48 c7 -7 12 -23 12 -37 l0 -25
-30 29 c-16 16 -30 32 -30 37 0 12 34 10 48 -4z"/>
<path d="M1307 3287 c-20 -16 -30 -34 -34 -65 -17 -128 138 -169 197 -52 28
55 26 70 -10 70 -24 0 -30 -4 -30 -22 -1 -27 -18 -52 -42 -61 -25 -9 -23 0 18
67 34 56 35 61 18 73 -28 20 -85 16 -117 -10z m51 -67 c-23 -40 -38 -43 -38
-9 0 23 37 62 50 54 6 -4 0 -23 -12 -45z"/>
<path d="M3628 3214 c-85 -43 -87 -45 -76 -69 14 -31 16 -31 69 0 54 30 85 32
99 4 17 -30 8 -43 -54 -79 -51 -29 -55 -33 -45 -53 7 -12 13 -24 15 -25 4 -6
138 68 146 81 18 28 8 79 -21 108 -16 16 -25 29 -20 29 5 0 3 11 -3 25 -6 14
-14 25 -17 24 -3 0 -45 -20 -93 -45z"/>
<path d="M1207 3128 c-7 -24 15 -59 60 -98 l28 -25 -65 -3 c-46 -2 -69 -7 -77
-19 -27 -36 -16 -43 66 -43 105 0 137 7 149 35 9 20 2 30 -67 99 -42 42 -79
76 -83 76 -3 0 -8 -10 -11 -22z"/>
<path d="M3712 2990 c-55 -34 -66 -105 -21 -146 11 -10 15 -20 10 -23 -5 -3
-5 -16 0 -28 l8 -22 68 19 c171 49 188 56 188 81 0 19 -5 24 -25 23 -14 0 -34
-3 -45 -7 -19 -6 -21 -3 -21 29 0 28 -7 43 -32 65 -39 35 -83 38 -130 9z m104
-65 c15 -23 15 -27 0 -51 -24 -36 -76 -31 -90 8 -20 57 57 93 90 43z"/>
<path d="M1129 2871 c-23 -24 -29 -38 -29 -73 0 -55 20 -84 68 -99 75 -22 142
34 142 118 0 43 -13 57 -37 43 -13 -9 -18 -21 -15 -39 4 -26 -30 -82 -42 -71
-3 3 1 30 9 60 23 85 21 90 -26 90 -31 0 -47 -6 -70 -29z m56 -58 c-8 -46 -13
-55 -26 -48 -13 9 -11 59 3 73 22 22 30 13 23 -25z"/>
<path d="M1077 2658 c-41 -15 -64 -69 -68 -163 l-4 -80 133 -3 132 -3 0 87 c0
70 -4 93 -20 119 -31 50 -104 68 -173 43z m113 -66 c16 -13 22 -29 23 -67 l2
-50 -79 -3 -79 -3 5 52 c4 39 11 58 28 71 28 23 71 23 100 0z"/>
<path d="M3803 2643 l-73 -4 0 -70 c0 -118 42 -179 125 -179 106 0 145 50 145
183 l0 77 -62 -2 c-35 -1 -96 -4 -135 -5z m137 -97 c0 -59 -7 -74 -42 -92 -25
-13 -35 -13 -59 -3 -38 15 -49 37 -49 93 l0 46 75 0 75 0 0 -44z"/>
<path d="M3760 2347 c-32 -16 -50 -52 -50 -104 0 -46 10 -58 39 -48 16 5 19
12 14 38 -4 24 1 39 17 57 l21 25 -5 -35 c-3 -19 -8 -54 -12 -78 l-7 -43 49 3
c42 3 51 7 71 37 13 19 23 44 23 57 0 79 -86 128 -160 91z m110 -86 c0 -21
-26 -58 -35 -50 -3 4 -3 25 1 48 5 33 9 39 20 30 8 -6 14 -19 14 -28z"/>
<path d="M1143 2246 c-62 -17 -115 -35 -118 -38 -4 -4 -4 -16 0 -28 7 -22 29
-24 75 -6 12 5 15 -2 15 -33 0 -95 107 -129 183 -59 26 25 31 98 7 118 -8 6
-14 19 -13 28 5 62 4 62 -149 18z m107 -56 c11 -11 20 -27 20 -35 0 -21 -36
-55 -60 -55 -26 0 -54 43 -45 70 6 18 34 37 58 39 4 1 16 -8 27 -19z"/>
<path d="M3693 2103 c-23 -3 -33 -10 -37 -29 -6 -22 3 -35 66 -95 40 -37 78
-69 85 -69 6 0 15 10 19 22 5 17 -3 31 -44 70 -30 29 -46 51 -39 53 7 3 39 6
71 7 51 3 60 6 67 26 8 22 7 22 -74 20 -45 0 -96 -3 -114 -5z"/>
<path d="M1290 2033 c-101 -44 -124 -91 -78 -156 12 -17 23 -39 23 -49 3 -40
20 -40 108 3 86 42 95 51 77 79 -7 12 -17 11 -64 -9 -61 -25 -83 -25 -100 2
-16 25 2 48 62 76 54 25 60 35 39 62 -11 15 -17 14 -67 -8z"/>
<path d="M3624 1936 c-43 -19 -74 -62 -74 -103 0 -29 3 -34 21 -31 14 2 25 15
33 37 11 34 39 61 52 49 3 -4 -8 -31 -25 -61 -17 -30 -31 -59 -31 -65 0 -14
58 -30 87 -24 13 2 36 20 53 39 42 47 41 95 -1 134 -17 16 -37 29 -44 29 -7 0
-19 2 -27 5 -7 2 -27 -2 -44 -9z m96 -103 c0 -15 -36 -53 -50 -53 -16 0 -12
20 11 57 16 26 24 31 30 21 5 -7 9 -19 9 -25z"/>
<path d="M1420 1814 c0 -9 11 -27 25 -40 16 -14 25 -34 24 -51 l0 -28 -27 34
c-72 90 -68 87 -87 71 -31 -25 -46 -75 -34 -107 26 -68 90 -98 147 -69 61 32
80 94 44 149 -34 51 -92 77 -92 41z m-12 -109 c25 -40 27 -45 10 -45 -20 0
-48 32 -48 57 0 32 11 29 38 -12z"/>
<path d="M3485 1760 c-11 -12 -15 -24 -9 -28 51 -44 203 -152 215 -152 8 0 20
9 26 19 11 17 1 27 -98 100 -60 45 -111 81 -112 81 -2 0 -12 -9 -22 -20z"/>
<path d="M1547 1666 c-3 -8 1 -20 9 -26 19 -16 18 -19 -16 -59 -28 -33 -31
-34 -55 -21 -35 19 -57 -1 -32 -28 15 -17 15 -19 0 -35 -16 -16 -16 -18 4 -39
18 -17 25 -19 37 -9 8 7 20 11 28 10 7 -1 21 1 31 6 14 6 15 10 6 22 -10 11
-4 22 29 56 23 24 42 52 42 64 0 47 -69 96 -83 59z"/>
<path d="M3384 1637 c-28 -25 -36 -41 -37 -69 -3 -100 119 -145 185 -67 36 42
42 73 23 113 -31 65 -113 76 -171 23z m105 -41 c26 -27 22 -54 -9 -74 -24 -15
-53 -3 -70 29 -9 16 -8 26 5 45 20 31 45 31 74 0z"/>
<path d="M3220 1585 c-11 -13 -9 -21 9 -46 13 -17 21 -31 19 -33 -1 -1 -20 -9
-41 -19 -43 -19 -61 -56 -52 -104 7 -40 57 -83 96 -83 33 0 89 25 89 40 0 5
16 16 35 24 19 8 35 18 35 21 0 4 -26 44 -59 89 -32 46 -64 93 -70 104 -14 26
-43 29 -61 7z m72 -142 c22 -20 24 -66 3 -83 -22 -18 -60 -5 -74 26 -10 22 -9
31 4 50 18 28 41 31 67 7z"/>
<path d="M1643 1533 c-41 -52 -53 -77 -53 -111 0 -34 36 -72 68 -72 13 0 22
-6 22 -15 0 -18 39 -40 50 -28 27 28 110 138 110 144 0 5 -10 14 -22 20 -20
11 -26 7 -64 -35 -44 -50 -76 -58 -97 -24 -8 13 -2 28 28 72 32 46 36 58 25
71 -19 23 -34 18 -67 -22z"/>
<path d="M1854 1400 c-30 -12 -54 -54 -54 -93 0 -46 32 -84 81 -97 77 -21 139
22 139 97 0 71 -93 123 -166 93z m87 -50 c25 -14 25 -54 -1 -80 -24 -24 -38
-25 -62 -3 -22 20 -23 51 -1 75 18 20 36 23 64 8z"/>
<path d="M2989 1367 c-19 -12 -35 -30 -37 -39 -4 -19 40 -37 46 -19 9 27 92
47 92 21 0 -4 -29 -21 -65 -36 -36 -16 -65 -34 -65 -42 0 -27 51 -62 92 -62
84 0 133 60 108 134 -22 67 -105 87 -171 43z m121 -91 c0 -22 -30 -47 -53 -44
-33 5 -30 23 5 40 42 21 48 21 48 4z"/>
<path d="M2104 1295 c-8 -19 -14 -41 -14 -48 0 -21 -34 -47 -62 -47 -18 0 -27
-7 -31 -21 -6 -22 10 -33 40 -27 10 2 23 -2 28 -8 6 -7 19 -14 30 -16 17 -3
24 10 48 82 15 46 25 90 23 96 -2 6 -14 14 -26 17 -17 4 -24 -1 -36 -28z"/>
<path d="M2866 1323 c-15 -4 -17 -11 -11 -36 18 -85 17 -102 -4 -121 -22 -20
-27 -41 -11 -51 7 -5 106 21 119 31 8 7 -53 184 -63 183 -6 -1 -19 -3 -30 -6z"/>
<path d="M2315 1235 l-7 -46 -61 3 c-51 3 -62 0 -65 -14 -2 -13 6 -18 35 -23
84 -14 81 -12 73 -47 -3 -18 -11 -32 -16 -31 -5 0 -35 4 -66 8 -57 7 -58 7
-58 -17 0 -23 5 -25 89 -36 115 -16 111 -16 112 16 0 15 8 70 19 122 10 52 17
96 17 96 -1 1 -16 5 -34 8 -31 7 -32 7 -38 -39z"/>
<path d="M2620 1265 c-22 -26 -8 -50 30 -50 25 0 36 5 38 18 5 23 -15 47 -38
47 -10 0 -23 -7 -30 -15z"/>
</g>
</svg>
